<svg width="18" height="20" viewBox="0 0 18 20" fill="none" xmlns="http://www.w3.org/2000/svg">
<path d="M3.50069 20H14.4993C16.4297 20 18 18.4431 18 16.5292V6.15385C18 5.81538 17.7207 5.53846 17.3793 5.53846H13.6552V4.61538C13.6552 2.07077 11.5666 0 9 0C6.43345 0 4.34483 2.07077 4.34483 4.61538V5.53846H0.62069C0.27931 5.53846 0 5.81538 0 6.15385V16.5292C0 18.4431 1.57034 20 3.50069 20ZM5.58621 4.61538C5.58621 2.74769 7.11621 1.23077 9 1.23077C10.8838 1.23077 12.4138 2.74769 12.4138 4.61538V5.53846H5.58621V4.61538ZM1.24138 6.76923H4.34483V8.30769C4.34483 8.64615 4.62414 8.92308 4.96552 8.92308C5.3069 8.92308 5.58621 8.64615 5.58621 8.30769V6.76923H12.4138V8.30769C12.4138 8.64615 12.6931 8.92308 13.0345 8.92308C13.3759 8.92308 13.6552 8.64615 13.6552 8.30769V6.76923H16.7586V16.5292C16.7586 17.7631 15.7438 18.7692 14.4993 18.7692H3.50069C2.25621 18.7692 1.24138 17.7631 1.24138 16.5292V6.76923Z" fill="white"/>
</svg>
