<?xml version="1.0" encoding="UTF-8"?>
<svg id="Ebene_2" data-name="Ebene 2" xmlns="http://www.w3.org/2000/svg" viewBox="0 0 290.54 57.16">
  <defs>
    <style>
      .cls-1 {
        fill: #fff;
      }

      .cls-2 {
        fill: #faf9e5;
      }
    </style>
  </defs>
  <g id="Ebene_1-2" data-name="Ebene 1">
    <path class="cls-2" d="M190.12,28.58c-15.92.08-15.95.14-16,28.58-.04-28.44-.08-28.5-16-28.58,15.92-.08,15.95-.14,16-28.58.04,28.44.08,28.5,16,28.58Z"/>
    <g>
      <path class="cls-1" d="M0,45.69v-.41c.34-.07.71-.17,1.1-.31.39-.14.79-.37,1.22-.69.42-.32.85-.76,1.28-1.34.43-.57.86-1.32,1.27-2.26.27-.62.54-1.26.8-1.94.26-.67.56-1.47.89-2.4.33-.92.72-2.01,1.18-3.27.46-1.26,1.02-2.76,1.68-4.52.46-1.21.92-2.44,1.4-3.68.48-1.24.95-2.46,1.4-3.65.46-1.19.9-2.32,1.32-3.39.42-1.07.81-2.04,1.15-2.91-.3-.41-.65-.68-1.06-.8-.41-.13-1.02-.19-1.82-.19h-1.27v-.48h.55c.39,0,.8-.15,1.25-.44.45-.3.89-.63,1.34-.99.44-.37.86-.7,1.23-.99.38-.3.68-.44.91-.44.25,0,.44.08.57.24.13.16.24.37.36.62.21.55.55,1.42,1.03,2.62.48,1.2,1.03,2.58,1.64,4.14.62,1.56,1.27,3.25,1.97,5.05.7,1.8,1.36,3.57,2,5.31.66,1.76,1.22,3.27,1.68,4.52.46,1.26.85,2.35,1.18,3.27.33.92.63,1.72.89,2.4.26.67.53,1.32.8,1.94.41.94.83,1.69,1.27,2.26.43.57.86,1.02,1.28,1.34.42.32.83.55,1.22.69.39.14.75.24,1.1.31v.41h-10.89v-.41c.3,0,.61-.05.94-.14.33-.09.64-.24.92-.45.29-.21.52-.48.7-.84.18-.35.27-.8.27-1.35,0-.48-.18-1.31-.53-2.5-.35-1.19-.8-2.59-1.35-4.21H7.84c-.53,1.62-.95,3.01-1.28,4.18-.33,1.16-.5,1.98-.5,2.43,0,.64.09,1.15.27,1.52.18.38.42.67.7.87.29.21.59.34.92.39.33.06.65.09.94.09v.41H0ZM22.64,35.11c-.41-1.16-.86-2.38-1.34-3.65-.48-1.27-.96-2.53-1.44-3.8-.48-1.27-.97-2.51-1.46-3.73-.49-1.22-.94-2.36-1.35-3.41-.41-1.05-.79-2-1.13-2.84-.34-.84-.62-1.52-.82-2.02v.03c-.43,1.14-.95,2.5-1.54,4.08-.59,1.58-1.21,3.24-1.85,4.98-.64,1.75-1.28,3.52-1.92,5.31-.64,1.79-1.22,3.48-1.75,5.05h14.59Z"/>
      <path class="cls-1" d="M54.84,45.69v-3.97c-.87.73-1.77,1.39-2.71,1.99-.94.59-1.94,1.1-3.01,1.52-1.07.42-2.23.75-3.48.98-1.24.23-2.61.34-4.09.34-1.3,0-2.48-.21-3.53-.62-1.05-.41-1.95-1.01-2.71-1.8-.75-.79-1.33-1.75-1.73-2.88s-.6-2.41-.6-3.85v-20.93c0-.41-.01-.88-.03-1.42-.02-.54-.12-1.04-.29-1.52s-.43-.88-.77-1.2c-.34-.32-.85-.48-1.51-.48v-.41h8.63v.41c-.64,0-1.14.16-1.49.48-.35.32-.62.72-.79,1.2s-.27.99-.29,1.52c-.02.54-.03,1.01-.03,1.42v19.86c0,1.12.1,2.2.29,3.25.19,1.05.55,1.99,1.06,2.81.51.82,1.21,1.48,2.09,1.99.88.5,2,.75,3.37.75,1.07,0,2.14-.11,3.2-.33,1.06-.22,2.09-.51,3.1-.89,1-.38,1.96-.82,2.86-1.34s1.72-1.08,2.45-1.7v-24.42c0-.41-.01-.88-.03-1.42-.02-.54-.12-1.04-.29-1.52-.17-.48-.43-.88-.77-1.2-.34-.32-.85-.48-1.51-.48v-.41h8.63v.41c-.64,0-1.14.16-1.49.48-.35.32-.62.72-.79,1.2-.17.48-.27.99-.29,1.52-.02.54-.03,1.01-.03,1.42v24.18c0,.41.01.88.03,1.42.02.54.12,1.04.29,1.52.17.48.43.88.79,1.2.35.32.85.48,1.49.48v.41h-6.03Z"/>
      <path class="cls-1" d="M64.63,37.1c.62,1.12,1.38,2.19,2.3,3.22.91,1.03,1.94,1.94,3.07,2.74,1.13.8,2.34,1.44,3.63,1.92s2.61.72,3.96.72c1.58,0,2.94-.26,4.09-.77,1.15-.51,2.09-1.19,2.83-2.02.73-.83,1.27-1.79,1.63-2.86.35-1.07.53-2.16.53-3.25,0-1.42-.33-2.56-.99-3.42-.66-.87-1.54-1.58-2.62-2.12s-2.32-.99-3.7-1.34c-1.38-.34-2.79-.67-4.23-.98-1.44-.31-2.85-.67-4.23-1.08-1.38-.41-2.62-.97-3.7-1.68-1.08-.71-1.96-1.62-2.62-2.72-.66-1.11-.99-2.52-.99-4.23,0-1.26.27-2.41.82-3.48.55-1.06,1.36-1.97,2.45-2.74,1.08-.77,2.44-1.36,4.06-1.78,1.62-.42,3.52-.63,5.69-.63,1.37,0,2.56.04,3.58.12,1.02.08,1.87.18,2.55.29.82.14,1.53.29,2.12.45l1.85,7.19h-.41c-.46-1.16-1.07-2.19-1.83-3.08-.77-.89-1.63-1.63-2.59-2.21-.96-.58-1.99-1.02-3.08-1.32-1.1-.3-2.2-.45-3.32-.45-1.76,0-3.25.16-4.47.48-1.22.32-2.21.77-2.98,1.34-.77.57-1.32,1.26-1.66,2.06-.34.8-.51,1.67-.51,2.6,0,1.44.33,2.59.99,3.46.66.87,1.54,1.57,2.62,2.11,1.08.54,2.32.96,3.7,1.27,1.38.31,2.8.62,4.25.92,1.45.31,2.87.67,4.25,1.1,1.38.42,2.61,1.02,3.7,1.78,1.08.77,1.96,1.75,2.62,2.96.66,1.21.99,2.75.99,4.62,0,1.21-.26,2.43-.77,3.65-.51,1.22-1.27,2.32-2.26,3.31-.99.98-2.23,1.78-3.7,2.4-1.47.62-3.17.92-5.09.92-1.48,0-2.85-.11-4.11-.33-1.26-.22-2.41-.53-3.46-.94-1.05-.41-2.02-.9-2.89-1.47-.88-.57-1.7-1.21-2.45-1.92v-4.8h.41Z"/>
      <path class="cls-1" d="M106.28,11.44c2.08,0,3.84.34,5.29,1.01,1.45.67,2.59,1.53,3.41,2.57.82,1.04,1.32,2.19,1.49,3.44.17,1.26.02,2.47-.46,3.65-.48,1.18-1.3,2.23-2.45,3.17-1.15.94-2.64,1.61-4.47,2.02,1.51.14,2.83.46,3.96.98,1.13.51,2.08,1.16,2.84,1.95.76.79,1.34,1.7,1.71,2.72.38,1.03.56,2.14.56,3.32,0,1.26-.24,2.45-.72,3.6-.48,1.14-1.2,2.15-2.17,3.01-.97.87-2.19,1.55-3.65,2.05-1.46.5-3.16.75-5.1.75h-15.21v-.41c.66,0,1.16-.16,1.51-.48.34-.32.6-.72.77-1.2.17-.48.27-.99.29-1.52.02-.54.03-1.01.03-1.42v-24.18c0-.41-.01-.88-.03-1.42-.02-.54-.12-1.04-.29-1.52-.17-.48-.43-.88-.77-1.2-.34-.32-.84-.48-1.51-.48v-.41h14.97ZM103.37,27.1c2.05,0,3.79-.37,5.21-1.11,1.42-.74,2.5-1.67,3.25-2.77.75-1.11,1.18-2.31,1.27-3.6.09-1.29-.15-2.49-.74-3.6-.58-1.11-1.51-2.03-2.77-2.77-1.27-.74-2.88-1.11-4.85-1.11h-7.4v14.97h6.03ZM104.46,45.01c1.6,0,3.03-.24,4.28-.72,1.26-.48,2.32-1.12,3.19-1.92s1.53-1.71,1.99-2.74c.46-1.03.68-2.09.68-3.19,0-1.28-.22-2.45-.67-3.51-.45-1.06-1.1-1.97-1.95-2.74-.86-.76-1.91-1.36-3.17-1.78-1.26-.42-2.69-.63-4.32-.63h-7.16v17.23h7.12Z"/>
      <path class="cls-1" d="M120.53,45.28c.66,0,1.16-.16,1.51-.48s.6-.72.77-1.2c.17-.48.27-.99.29-1.52.02-.54.03-1.01.03-1.42v-24.18c0-.41-.01-.88-.03-1.42-.02-.54-.12-1.04-.29-1.52-.17-.48-.43-.88-.77-1.2-.34-.32-.85-.48-1.51-.48v-.41h8.63v.41c-.64,0-1.14.16-1.49.48-.35.32-.62.72-.79,1.2-.17.48-.27.99-.29,1.52-.02.54-.03,1.01-.03,1.42v24.18c0,.41.01.88.03,1.42.02.54.12,1.04.29,1.52.17.48.43.88.79,1.2s.85.48,1.49.48v.41h-8.63v-.41Z"/>
      <path class="cls-1" d="M145.39,45.01c1.76,0,3.34-.24,4.76-.72,1.42-.48,2.65-1.08,3.72-1.8,1.06-.72,1.94-1.5,2.64-2.35.7-.84,1.22-1.64,1.56-2.4h.41l-2.81,7.95h-24.49v-.41c.66,0,1.16-.16,1.51-.48s.6-.72.77-1.2.27-.99.29-1.52c.02-.54.03-1.01.03-1.42v-24.18c0-.41-.01-.88-.03-1.42-.02-.54-.12-1.04-.29-1.52s-.43-.88-.77-1.2c-.34-.32-.85-.48-1.51-.48v-.41h8.63v.41c-.64,0-1.14.16-1.49.48-.35.32-.62.72-.79,1.2s-.27.99-.29,1.52c-.02.54-.03,1.01-.03,1.42v28.53h8.19Z"/>
      <path class="cls-1" d="M189.54,28.57c0,2.31-.35,4.49-1.04,6.56-.7,2.07-1.72,3.88-3.08,5.45-1.36,1.56-3.04,2.81-5.05,3.73-2.01.92-4.34,1.39-6.99,1.39h-14.25v-.41c.66,0,1.16-.16,1.51-.48.34-.32.6-.72.77-1.2s.27-.99.29-1.52c.02-.54.03-1.01.03-1.42v-24.18c0-.41-.01-.88-.03-1.42-.02-.54-.12-1.04-.29-1.52s-.43-.88-.77-1.2c-.34-.32-.84-.48-1.51-.48v-.41h14.25c2.65,0,4.98.46,6.99,1.39,2.01.92,3.69,2.17,5.05,3.73,1.36,1.56,2.39,3.38,3.08,5.45.7,2.07,1.04,4.25,1.04,6.56ZM172.55,45.01c2.1,0,3.98-.47,5.65-1.4,1.67-.94,3.07-2.17,4.21-3.72,1.14-1.54,2.01-3.29,2.62-5.26.6-1.96.91-3.98.91-6.06s-.31-4.1-.94-6.08c-.63-1.97-1.52-3.73-2.67-5.26-1.15-1.53-2.56-2.76-4.21-3.7-1.66-.94-3.51-1.4-5.57-1.4h-7.4v32.88h7.4Z"/>
      <path class="cls-1" d="M216.36,45.69v-3.97c-.87.73-1.77,1.39-2.71,1.99-.94.59-1.94,1.1-3.01,1.52-1.07.42-2.23.75-3.48.98-1.25.23-2.61.34-4.09.34-1.3,0-2.48-.21-3.53-.62-1.05-.41-1.95-1.01-2.71-1.8-.75-.79-1.33-1.75-1.73-2.88-.4-1.13-.6-2.41-.6-3.85v-20.93c0-.41-.01-.88-.03-1.42-.02-.54-.12-1.04-.29-1.52-.17-.48-.43-.88-.77-1.2-.34-.32-.84-.48-1.51-.48v-.41h8.63v.41c-.64,0-1.14.16-1.49.48-.35.32-.62.72-.79,1.2-.17.48-.27.99-.29,1.52-.02.54-.03,1.01-.03,1.42v19.86c0,1.12.1,2.2.29,3.25.19,1.05.55,1.99,1.06,2.81s1.21,1.48,2.09,1.99c.88.5,2,.75,3.37.75,1.07,0,2.14-.11,3.2-.33,1.06-.22,2.09-.51,3.1-.89,1-.38,1.96-.82,2.86-1.34.9-.51,1.72-1.08,2.45-1.7v-24.42c0-.41-.01-.88-.03-1.42-.02-.54-.12-1.04-.29-1.52s-.43-.88-.77-1.2c-.34-.32-.85-.48-1.51-.48v-.41h8.63v.41c-.64,0-1.14.16-1.49.48-.35.32-.62.72-.79,1.2s-.27.99-.29,1.52c-.02.54-.03,1.01-.03,1.42v24.18c0,.41.01.88.03,1.42.02.54.12,1.04.29,1.52s.43.88.79,1.2c.35.32.85.48,1.49.48v.41h-6.03Z"/>
      <path class="cls-1" d="M229.03,14.18v24.83c0,2.03.43,3.56,1.3,4.59.87,1.03,2.28,1.59,4.25,1.68v.41h-10.17v-.41c.66,0,1.23-.16,1.7-.48.47-.32.86-.72,1.16-1.2s.54-.99.68-1.52c.15-.54.22-1.01.22-1.42V13.02c-.5-.55-1.01-.88-1.52-.99-.51-.11-1.14-.17-1.87-.17v-.41h5.55c.32,0,.62.08.91.24.29.16.52.37.7.62l17.09,27.02c.32.53.67,1,1.04,1.44.38.43.75.84,1.11,1.23v-21.99c0-.27-.02-.67-.05-1.18-.03-.51-.11-1.07-.24-1.68-.13-.6-.32-1.22-.58-1.85-.26-.63-.63-1.2-1.11-1.71-.48-.51-1.08-.93-1.8-1.25-.72-.32-1.59-.48-2.62-.48v-.41h9.86v.41c-.64,0-1.14.16-1.49.48-.35.32-.62.72-.79,1.2s-.27.99-.29,1.52c-.02.54-.03,1.01-.03,1.42v26.27c.34.25.68.45,1.03.58.34.14.7.21,1.06.21.14,0,.27-.01.41-.03.14-.02.29-.06.45-.1l.24.27-4.08,2.6c-.25.18-.5.27-.75.27-.32,0-.57-.13-.75-.38l-.96-1.27-17.67-27.85-1.99-2.88Z"/>
      <path class="cls-1" d="M257.94,28.57c0-2.49.43-4.82,1.28-7,.86-2.18,2.05-4.09,3.58-5.72,1.53-1.63,3.37-2.92,5.51-3.85,2.15-.94,4.5-1.4,7.06-1.4,1.37,0,2.56.04,3.58.12,1.02.08,1.87.18,2.55.29.82.14,1.53.29,2.12.45l1.85,7.19h-.41c-.53-1.23-1.18-2.29-1.95-3.17-.78-.88-1.64-1.61-2.59-2.19-.95-.58-1.95-1.01-3.01-1.28-1.06-.27-2.15-.41-3.27-.41-1.62,0-3.08.22-4.38.65-1.3.43-2.45,1.02-3.46,1.76-1,.74-1.86,1.6-2.57,2.57-.71.97-1.28,1.99-1.73,3.07-.44,1.07-.78,2.16-.99,3.27-.22,1.11-.33,2.17-.33,3.2,0,2.53.42,4.98,1.27,7.35.84,2.36,2.01,4.45,3.51,6.27,1.5,1.82,3.28,3.27,5.34,4.35,2.07,1.08,4.33,1.63,6.8,1.63,1.42,0,2.69-.29,3.82-.87,1.13-.58,2.13-1.39,3-2.41v-7.09c0-.41-.01-.88-.03-1.42-.02-.54-.12-1.04-.29-1.52-.17-.48-.43-.88-.77-1.2s-.85-.48-1.51-.48v-.41h8.63v.41c-.64,0-1.14.16-1.49.48-.35.32-.62.72-.79,1.2-.17.48-.27.99-.29,1.52-.02.54-.03,1.01-.03,1.42v6.44c-.53.89-1.34,1.69-2.43,2.4-.46.3-1,.59-1.64.87-.64.29-1.37.54-2.19.77-.82.23-1.76.41-2.81.55-1.05.14-2.21.21-3.49.21-2.56,0-4.91-.47-7.06-1.42-2.15-.95-3.98-2.23-5.51-3.85-1.53-1.62-2.72-3.52-3.58-5.7-.86-2.18-1.28-4.52-1.28-7Z"/>
    </g>
  </g>
</svg>