<?xml version="1.0" encoding="UTF-8"?>
<svg id="Ebene_2" xmlns="http://www.w3.org/2000/svg" version="1.1" viewBox="0 0 182.1 57.2">
  <!-- Generator: Adobe Illustrator 29.8.1, SVG Export Plug-In . SVG Version: 2.1.1 Build 2)  -->
  <defs>
    <style>
      .st0 {
        fill: #363534;
      }
    </style>
  </defs>
  <g id="Ebene_1-2">
    <g>
      <g>
        <path class="st0" d="M16.2,46.1c-.4-.9-.8-2-1.4-3.3-.5-1.4-1.1-2.8-1.7-4.4-.6-1.6-1.2-3.2-1.9-4.9-.6-1.7-1.2-3.2-1.8-4.7-.7-1.8-1.2-3.3-1.7-4.5-.5-1.3-.8-2.4-1.2-3.3s-.6-1.7-.9-2.4c-.3-.7-.5-1.3-.8-1.9-.4-.9-.8-1.7-1.3-2.3-.4-.6-.9-1-1.3-1.3-.4-.3-.8-.6-1.2-.7-.4-.1-.8-.2-1.1-.3v-.4h10.9v.4c-.3,0-.6,0-.9.2s-.6.3-.9.5c-.3.2-.5.5-.7.9-.2.4-.3.8-.3,1.3s.2,1.4.6,2.7c.4,1.3.9,2.9,1.5,4.6s1.3,3.6,2,5.6c.7,2,1.5,3.9,2.2,5.8s1.4,3.5,2,5c.6,1.5,1,2.7,1.4,3.4.5-1.2,1-2.7,1.6-4.4.6-1.7,1.3-3.5,1.9-5.3.7-1.9,1.3-3.8,2-5.6.7-1.9,1.2-3.6,1.8-5.3s.9-3,1.2-4.2c.3-1.2.5-2,.5-2.4s0-.9-.3-1.3c-.2-.4-.4-.6-.7-.9-.3-.2-.6-.4-.9-.5s-.6-.2-.9-.2v-.4h8.9v.4c-.3,0-.7.2-1.1.3-.4.1-.8.4-1.2.7-.4.3-.9.8-1.3,1.3-.4.6-.9,1.3-1.3,2.3-.3.6-.5,1.3-.8,1.9-.3.7-.6,1.5-.9,2.4-.3.9-.7,2-1.2,3.3-.5,1.3-1,2.8-1.7,4.5-.4,1-.9,2.4-1.4,3.9-.5,1.5-1.1,3.1-1.7,4.8s-1.1,3.2-1.6,4.8c-.5,1.5-1,2.8-1.3,3.8-.2.5-.4.7-.6.7s-.4-.2-.6-.7h0Z"/>
        <path class="st0" d="M21.8,45.9v-.4c.3,0,.7-.2,1.1-.3.4-.1.8-.4,1.2-.7.4-.3.9-.8,1.3-1.3.4-.6.9-1.3,1.3-2.3.3-.6.5-1.3.8-1.9.3-.7.6-1.5.9-2.4.3-.9.7-2,1.2-3.3.5-1.3,1-2.8,1.7-4.5.5-1.2.9-2.4,1.4-3.7s1-2.5,1.4-3.6c.5-1.2.9-2.3,1.3-3.4s.8-2,1.2-2.9c-.3-.4-.7-.7-1.1-.8-.4-.1-1-.2-1.8-.2h-1.3v-.5h.5c.4,0,.8-.1,1.2-.4.5-.3.9-.6,1.3-1,.5-.4.9-.7,1.2-1,.4-.3.7-.4.9-.4s.4,0,.6.2.2.4.4.6c.2.6.5,1.4,1,2.6s1,2.6,1.6,4.1c.6,1.6,1.3,3.2,2,5.1.7,1.8,1.4,3.6,2,5.3.7,1.8,1.2,3.3,1.7,4.5.5,1.3.8,2.3,1.2,3.3.3.9.6,1.7.9,2.4.3.7.5,1.3.8,1.9.4.9.8,1.7,1.3,2.3.4.6.9,1,1.3,1.3s.8.5,1.2.7.8.2,1.1.3v.4h-10.9v-.4c.3,0,.6,0,.9-.1.3,0,.6-.2.9-.5.3-.2.5-.5.7-.8.2-.3.3-.8.3-1.3s-.2-1.3-.5-2.5-.8-2.6-1.3-4.2h-15c-.5,1.6-1,3-1.3,4.2-.3,1.2-.5,2-.5,2.4,0,.6,0,1.2.3,1.5.2.4.4.7.7.9.3.2.6.3.9.4.3,0,.6,0,.9,0v.4h-8.9,0ZM44.5,35.3c-.4-1.2-.9-2.4-1.3-3.6-.5-1.3-1-2.5-1.4-3.8s-1-2.5-1.5-3.7c-.5-1.2-.9-2.4-1.3-3.4s-.8-2-1.1-2.8-.6-1.5-.8-2h0c-.4,1.2-1,2.5-1.5,4.1-.6,1.6-1.2,3.2-1.8,5-.6,1.8-1.3,3.5-1.9,5.3-.6,1.8-1.2,3.5-1.8,5.1h14.6Z"/>
        <path class="st0" d="M59.9,14.4v24.8c0,2,.4,3.6,1.3,4.6s2.3,1.6,4.2,1.7v.4h-10.2v-.4c.7,0,1.2-.2,1.7-.5s.9-.7,1.2-1.2.5-1,.7-1.5c.2-.5.2-1,.2-1.4V13.2c-.5-.6-1-.9-1.5-1-.5-.1-1.1-.2-1.9-.2v-.4h5.5c.3,0,.6,0,.9.2s.5.4.7.6l17.1,27c.3.5.7,1,1,1.4.4.4.8.8,1.1,1.2v-22c0-.3,0-.7,0-1.2,0-.5-.1-1.1-.2-1.7-.1-.6-.3-1.2-.6-1.9-.3-.6-.6-1.2-1.1-1.7s-1.1-.9-1.8-1.2-1.6-.5-2.6-.5v-.4h9.9v.4c-.6,0-1.1.2-1.5.5s-.6.7-.8,1.2-.3,1-.3,1.5c0,.5,0,1,0,1.4v26.3c.3.2.7.5,1,.6.3.1.7.2,1.1.2s.3,0,.4,0c.1,0,.3,0,.4,0l.2.3-4.1,2.6c-.2.2-.5.3-.8.3s-.6-.1-.8-.4l-1-1.3-17.7-27.9-2-2.9h0Z"/>
        <path class="st0" d="M89.9,37.3c.6,1.1,1.4,2.2,2.3,3.2.9,1,1.9,1.9,3.1,2.7,1.1.8,2.3,1.4,3.6,1.9s2.6.7,4,.7,2.9-.3,4.1-.8c1.2-.5,2.1-1.2,2.8-2,.7-.8,1.3-1.8,1.6-2.9.3-1.1.5-2.2.5-3.2s-.3-2.6-1-3.4c-.7-.9-1.5-1.6-2.6-2.1-1.1-.5-2.3-1-3.7-1.3-1.4-.3-2.8-.7-4.2-1s-2.8-.7-4.2-1.1c-1.4-.4-2.6-1-3.7-1.7-1.1-.7-2-1.6-2.6-2.7-.7-1.1-1-2.5-1-4.2s.3-2.4.8-3.5c.6-1.1,1.4-2,2.4-2.7,1.1-.8,2.4-1.4,4.1-1.8,1.6-.4,3.5-.6,5.7-.6s2.6,0,3.6.1c1,0,1.9.2,2.6.3.8.1,1.5.3,2.1.4l1.8,7.2h-.4c-.5-1.2-1.1-2.2-1.8-3.1-.8-.9-1.6-1.6-2.6-2.2s-2-1-3.1-1.3c-1.1-.3-2.2-.4-3.3-.4-1.8,0-3.2.2-4.5.5s-2.2.8-3,1.3c-.8.6-1.3,1.3-1.7,2.1-.3.8-.5,1.7-.5,2.6,0,1.4.3,2.6,1,3.5.7.9,1.5,1.6,2.6,2.1s2.3,1,3.7,1.3c1.4.3,2.8.6,4.2.9,1.4.3,2.9.7,4.2,1.1,1.4.4,2.6,1,3.7,1.8,1.1.8,2,1.8,2.6,3,.7,1.2,1,2.8,1,4.6s-.3,2.4-.8,3.7c-.5,1.2-1.3,2.3-2.3,3.3-1,1-2.2,1.8-3.7,2.4-1.5.6-3.2.9-5.1.9s-2.8-.1-4.1-.3-2.4-.5-3.5-.9c-1.1-.4-2-.9-2.9-1.5-.9-.6-1.7-1.2-2.4-1.9v-4.8h.4,0Z"/>
        <path class="st0" d="M169,45.2c1.8,0,3.3-.2,4.8-.7s2.6-1.1,3.7-1.8c1.1-.7,1.9-1.5,2.6-2.3.7-.8,1.2-1.6,1.6-2.4h.4l-2.8,8h-24.5v-.4c.7,0,1.2-.2,1.5-.5.3-.3.6-.7.8-1.2s.3-1,.3-1.5c0-.5,0-1,0-1.4v-24.2c0-.4,0-.9,0-1.4s-.1-1-.3-1.5-.4-.9-.8-1.2c-.3-.3-.8-.5-1.5-.5v-.4h8.6v.4c-.6,0-1.1.2-1.5.5s-.6.7-.8,1.2-.3,1-.3,1.5c0,.5,0,1,0,1.4v28.5h8.2,0Z"/>
      </g>
      <path class="st0" d="M117.2,28.8c0-2.5.4-4.8,1.3-7,.9-2.2,2.1-4.1,3.6-5.7,1.5-1.6,3.4-2.9,5.5-3.9,2.1-.9,4.5-1.4,7.1-1.4s4.9.5,7.1,1.4c2.1.9,4,2.2,5.5,3.9,1.5,1.6,2.7,3.5,3.6,5.7s1.3,4.5,1.3,7-.4,4.8-1.3,7c-.9,2.2-2.1,4.1-3.6,5.7-1.5,1.6-3.4,2.9-5.5,3.8-2.1,1-4.5,1.4-7.1,1.4s-4.9-.5-7.1-1.4c-2.2-1-4-2.2-5.5-3.8s-2.7-3.5-3.6-5.7-1.3-4.5-1.3-7ZM120.8,28.8c0,2.4.3,4.6,1,6.7.7,2.1,1.6,3.9,2.8,5.5,1.2,1.5,2.7,2.8,4.4,3.7s3.6,1.3,5.6,1.3,3.9-.5,5.6-1.3c1.7-.9,3.2-2.1,4.4-3.7s2.2-3.4,2.8-5.5,1-4.3,1-6.7-.3-4.6-1-6.7-1.6-3.9-2.8-5.4c-1.2-1.5-2.7-2.8-4.4-3.7-1.7-.9-3.6-1.4-5.6-1.4s-3.9.4-5.6,1.4c-1.7.9-3.2,2.1-4.4,3.7-1.2,1.5-2.2,3.4-2.8,5.4s-1,4.3-1,6.7Z"/>
      <path class="st0" d="M150.7,28.6c-15.9,0-15.9.1-16,28.6,0-28.4,0-28.5-16-28.6,15.9,0,15.9-.1,16-28.6,0,28.4,0,28.5,16,28.6Z"/>
    </g>
  </g>
</svg>