<?xml version="1.0" encoding="UTF-8"?>
<svg id="Ebene_2" data-name="Ebene 2" xmlns="http://www.w3.org/2000/svg" viewBox="0 0 349.73 89.99">
  <defs>
    <style>
      .cls-1 {
        fill: #fff;
      }

      .cls-2 {
        fill: #faf9e5;
      }
    </style>
  </defs>
  <g id="Ebene_1-2" data-name="Ebene 1">
    <path class="cls-2" d="M160.58,23.59c-13.14.07-13.17.12-13.2,23.59-.04-23.47-.07-23.52-13.2-23.59,13.14-.07,13.17-.12,13.2-23.59.04,23.47.07,23.52,13.2,23.59Z"/>
    <g>
      <path class="cls-1" d="M0,5.96h8.63v.41c-.64,0-1.14.16-1.49.48-.35.32-.62.72-.79,1.2-.17.48-.27.99-.29,1.52-.02.54-.03,1.01-.03,1.42v8.32h18.6v-8.32c0-.41-.01-.88-.03-1.42-.02-.54-.12-1.04-.29-1.52-.17-.48-.43-.88-.77-1.2s-.85-.48-1.51-.48v-.41h8.63v.41c-.64,0-1.14.16-1.49.48-.35.32-.62.72-.79,1.2-.17.48-.27.99-.29,1.52-.02.54-.03,1.01-.03,1.42v24.18c0,.41.01.88.03,1.42s.12,1.04.29,1.52c.17.48.43.88.79,1.2.35.32.85.48,1.49.48v.41h-8.63v-.41c.66,0,1.16-.16,1.51-.48s.6-.72.77-1.2c.17-.48.27-.99.29-1.52.02-.54.03-1.01.03-1.42v-15.17H6.03v15.17c0,.41.01.88.03,1.42.02.54.12,1.04.29,1.52.17.48.43.88.79,1.2.35.32.85.48,1.49.48v.41H0v-.41c.66,0,1.16-.16,1.51-.48.34-.32.6-.72.77-1.2.17-.48.27-.99.29-1.52.02-.54.03-1.01.03-1.42V10.99c0-.41-.01-.88-.03-1.42-.02-.54-.12-1.04-.29-1.52-.17-.48-.43-.88-.77-1.2-.34-.32-.84-.48-1.51-.48v-.41Z"/>
      <path class="cls-1" d="M42.5,5.96v.41c-.53,0-.97.12-1.34.36-.37.24-.55.6-.55,1.08,0,.43.17,1.06.51,1.88.34.82.79,1.75,1.34,2.77.55,1.03,1.16,2.11,1.85,3.25.68,1.14,1.37,2.26,2.05,3.34s1.34,2.09,1.97,3.03,1.15,1.71,1.56,2.33c.41-.62.92-1.4,1.52-2.35.6-.95,1.24-1.97,1.92-3.07.67-1.1,1.34-2.22,2-3.37.66-1.15,1.26-2.24,1.78-3.27s.95-1.94,1.28-2.74c.33-.8.5-1.4.5-1.82,0-.48-.22-.84-.67-1.08-.45-.24-.93-.36-1.46-.36v-.41h8.43v.41c-1,0-1.86.19-2.55.58-.7.39-1.34.98-1.93,1.78-.18.23-.54.76-1.06,1.59-.53.83-1.14,1.81-1.85,2.95-.71,1.13-1.47,2.35-2.28,3.65-.81,1.3-1.58,2.54-2.31,3.72-.73,1.18-1.38,2.22-1.95,3.13-.57.91-.97,1.56-1.2,1.95v9.45c0,.41.01.88.03,1.42.02.54.12,1.04.29,1.52.17.48.43.88.79,1.2.35.32.85.48,1.49.48v.41h-8.63v-.41c.66,0,1.16-.16,1.51-.48.34-.32.6-.72.77-1.2.17-.48.27-.99.29-1.52.02-.54.03-1.01.03-1.42v-9.11c-1.83-2.95-3.49-5.64-5-8.08-.64-1.03-1.28-2.05-1.92-3.08-.64-1.03-1.23-1.96-1.76-2.81-.54-.84-1-1.56-1.39-2.16-.39-.59-.65-.99-.79-1.2-.59-.8-1.24-1.39-1.94-1.78-.7-.39-1.55-.58-2.55-.58v-.41h11.2Z"/>
      <path class="cls-1" d="M83.67,5.96c1.64,0,3.08.26,4.32.77,1.23.51,2.27,1.19,3.12,2.02.84.83,1.48,1.79,1.9,2.88s.63,2.2.63,3.34-.21,2.35-.62,3.48c-.41,1.13-1.03,2.13-1.85,3-.82.87-1.86,1.57-3.12,2.11-1.26.54-2.74.81-4.45.81h-11.71v10.82c0,.41.01.88.03,1.42.02.54.12,1.04.29,1.52.17.48.43.88.79,1.2.35.32.85.48,1.49.48v.41h-8.63v-.41c.66,0,1.16-.16,1.51-.48.34-.32.6-.72.77-1.2.17-.48.27-.99.29-1.52.02-.54.03-1.01.03-1.42V10.99c0-.41-.01-.88-.03-1.42-.02-.54-.12-1.04-.29-1.52-.17-.48-.43-.88-.77-1.2-.34-.32-.84-.48-1.51-.48v-.41h17.81ZM81.21,23.63c1.51,0,2.83-.23,3.96-.7,1.13-.47,2.07-1.1,2.83-1.88.75-.79,1.32-1.7,1.7-2.74.38-1.04.57-2.12.57-3.24s-.19-2.12-.57-3.13-.95-1.92-1.71-2.71c-.77-.79-1.72-1.42-2.86-1.88-1.14-.47-2.48-.7-4.01-.7h-9.21v16.99h9.32Z"/>
      <path class="cls-1" d="M100.97,8.7v24.83c0,2.03.43,3.56,1.3,4.59.87,1.03,2.28,1.59,4.25,1.68v.41h-10.17v-.41c.66,0,1.23-.16,1.7-.48.47-.32.86-.72,1.16-1.2.31-.48.54-.99.69-1.52.15-.54.22-1.01.22-1.42V7.53c-.5-.55-1.01-.88-1.52-.99-.51-.11-1.14-.17-1.87-.17v-.41h5.55c.32,0,.62.08.91.24.29.16.52.37.7.62l17.09,27.02c.32.53.67,1.01,1.04,1.44.38.43.75.84,1.11,1.23V14.52c0-.27-.02-.67-.05-1.18s-.11-1.07-.24-1.68c-.13-.61-.32-1.22-.58-1.85-.26-.63-.63-1.2-1.11-1.71-.48-.51-1.08-.93-1.8-1.25-.72-.32-1.59-.48-2.62-.48v-.41h9.86v.41c-.64,0-1.14.16-1.49.48-.35.32-.62.72-.79,1.2-.17.48-.27.99-.29,1.52-.02.54-.03,1.01-.03,1.42v26.27c.34.25.68.44,1.03.58.34.14.7.21,1.06.21.14,0,.27-.01.41-.03.14-.02.29-.06.45-.1l.24.27-4.08,2.6c-.25.18-.5.27-.75.27-.32,0-.57-.13-.75-.38l-.96-1.27-17.67-27.84-1.99-2.88Z"/>
      <path class="cls-1" d="M129.88,23.08c0-2.49.43-4.82,1.28-7,.86-2.18,2.05-4.09,3.58-5.72,1.53-1.63,3.37-2.92,5.51-3.85s4.5-1.4,7.06-1.4,4.94.47,7.07,1.4c2.13.94,3.97,2.22,5.5,3.85,1.53,1.63,2.72,3.54,3.58,5.72.86,2.18,1.28,4.52,1.28,7s-.43,4.82-1.28,7c-.86,2.18-2.05,4.08-3.58,5.7-1.53,1.62-3.36,2.91-5.5,3.85-2.14.95-4.49,1.42-7.07,1.42s-4.91-.47-7.06-1.42-3.98-2.23-5.51-3.85c-1.53-1.62-2.72-3.52-3.58-5.7s-1.28-4.52-1.28-7ZM133.47,23.08c0,2.35.34,4.57,1.01,6.66.67,2.09,1.62,3.9,2.84,5.45,1.22,1.54,2.68,2.76,4.38,3.67,1.7.9,3.57,1.35,5.6,1.35s3.9-.45,5.6-1.35c1.7-.9,3.16-2.12,4.38-3.67,1.22-1.54,2.17-3.36,2.84-5.45.67-2.09,1.01-4.31,1.01-6.66s-.34-4.6-1.01-6.68c-.67-2.08-1.62-3.89-2.84-5.43-1.22-1.54-2.68-2.76-4.38-3.67-1.7-.9-3.57-1.35-5.6-1.35s-3.9.45-5.6,1.35c-1.7.9-3.16,2.12-4.38,3.67-1.22,1.54-2.17,3.35-2.84,5.43-.67,2.08-1.01,4.3-1.01,6.68Z"/>
      <path class="cls-1" d="M178.78,6.64v28.53c0,.41.01.88.03,1.42s.12,1.04.29,1.52c.17.48.43.88.79,1.2.35.32.85.48,1.49.48v.41h-8.63v-.41c.66,0,1.16-.16,1.51-.48s.6-.72.77-1.2c.17-.48.27-.99.29-1.52.02-.54.03-1.01.03-1.42V6.64h-3.32c-.98,0-1.91.09-2.79.27-.88.18-1.65.47-2.31.86-.66.39-1.19.87-1.58,1.46-.39.58-.58,1.28-.58,2.11h-.41v-5.38h25.41v5.38h-.41c0-.82-.19-1.52-.58-2.11-.39-.58-.91-1.07-1.58-1.46-.66-.39-1.43-.67-2.31-.86-.88-.18-1.81-.27-2.79-.27h-3.32Z"/>
      <path class="cls-1" d="M190.43,39.8c.66,0,1.16-.16,1.51-.48s.6-.72.77-1.2c.17-.48.27-.99.29-1.52.02-.54.03-1.01.03-1.42V10.99c0-.41-.01-.88-.03-1.42-.02-.54-.12-1.04-.29-1.52-.17-.48-.43-.88-.77-1.2s-.85-.48-1.51-.48v-.41h8.63v.41c-.64,0-1.14.16-1.49.48-.35.32-.62.72-.79,1.2-.17.48-.27.99-.29,1.52-.02.54-.03,1.01-.03,1.42v24.18c0,.41.01.88.03,1.42s.12,1.04.29,1.52c.17.48.43.88.79,1.2.35.32.85.48,1.49.48v.41h-8.63v-.41Z"/>
      <path class="cls-1" d="M202.83,31.61c.62,1.12,1.38,2.19,2.29,3.22.91,1.03,1.94,1.94,3.07,2.74s2.34,1.44,3.63,1.92c1.29.48,2.61.72,3.96.72,1.58,0,2.94-.26,4.09-.77,1.15-.51,2.09-1.19,2.83-2.02.73-.83,1.27-1.79,1.63-2.86.35-1.07.53-2.16.53-3.25,0-1.42-.33-2.56-.99-3.42-.66-.87-1.54-1.58-2.62-2.12-1.09-.55-2.32-.99-3.7-1.34-1.38-.34-2.79-.67-4.23-.98s-2.85-.67-4.23-1.08c-1.38-.41-2.61-.97-3.7-1.68-1.09-.71-1.96-1.62-2.62-2.72-.66-1.11-.99-2.52-.99-4.23,0-1.26.27-2.41.82-3.48.55-1.06,1.36-1.97,2.45-2.74,1.08-.76,2.44-1.36,4.06-1.78,1.62-.42,3.52-.63,5.69-.63,1.37,0,2.56.04,3.58.12,1.02.08,1.87.18,2.55.29.82.14,1.53.29,2.12.44l1.85,7.19h-.41c-.46-1.16-1.07-2.19-1.83-3.08-.77-.89-1.63-1.63-2.59-2.21s-1.99-1.02-3.08-1.32c-1.1-.3-2.2-.44-3.32-.44-1.76,0-3.25.16-4.47.48-1.22.32-2.22.77-2.98,1.34-.77.57-1.32,1.26-1.66,2.06-.34.8-.51,1.67-.51,2.6,0,1.44.33,2.59.99,3.46.66.87,1.54,1.57,2.62,2.11,1.08.54,2.32.96,3.7,1.27,1.38.31,2.8.62,4.25.92,1.45.31,2.87.67,4.25,1.1,1.38.42,2.61,1.02,3.7,1.78,1.08.77,1.96,1.75,2.62,2.96.66,1.21.99,2.75.99,4.62,0,1.21-.26,2.43-.77,3.65-.51,1.22-1.27,2.32-2.26,3.31-.99.98-2.23,1.78-3.7,2.4-1.47.62-3.17.92-5.09.92-1.48,0-2.85-.11-4.11-.33-1.26-.22-2.41-.53-3.46-.94-1.05-.41-2.02-.9-2.89-1.47-.88-.57-1.7-1.21-2.45-1.92v-4.8h.41Z"/>
      <path class="cls-1" d="M260.2,31.61v4.66c-.53.89-1.34,1.69-2.43,2.4-.46.3-1,.59-1.64.87-.64.29-1.37.54-2.19.77-.82.23-1.76.41-2.81.55-1.05.14-2.21.21-3.49.21-2.56,0-4.91-.47-7.06-1.42-2.15-.95-3.98-2.23-5.51-3.85-1.53-1.62-2.72-3.52-3.58-5.7-.86-2.18-1.28-4.52-1.28-7s.43-4.82,1.28-7c.86-2.18,2.05-4.09,3.58-5.72,1.53-1.63,3.37-2.92,5.51-3.85,2.15-.94,4.5-1.4,7.06-1.4,1.37,0,2.56.04,3.58.12,1.02.08,1.87.18,2.55.29.82.14,1.53.29,2.12.44l1.85,7.19h-.41c-.53-1.23-1.18-2.29-1.95-3.17-.78-.88-1.64-1.61-2.59-2.19-.95-.58-1.95-1.01-3.01-1.28s-2.15-.41-3.27-.41c-1.62,0-3.08.22-4.38.65s-2.45,1.02-3.46,1.76c-1,.74-1.86,1.6-2.57,2.57s-1.28,1.99-1.73,3.07c-.45,1.07-.78,2.16-.99,3.27-.22,1.11-.33,2.17-.33,3.2,0,2.53.42,4.98,1.27,7.35.84,2.36,2.01,4.45,3.51,6.27,1.5,1.82,3.28,3.27,5.34,4.35,2.07,1.08,4.33,1.63,6.8,1.63,1.21,0,2.32-.22,3.32-.67,1-.45,1.92-1.06,2.74-1.83.82-.78,1.55-1.69,2.17-2.74s1.16-2.17,1.59-3.36h.41Z"/>
      <path class="cls-1" d="M262.22,5.96h8.63v.41c-.64,0-1.14.16-1.49.48-.35.32-.62.72-.79,1.2-.17.48-.27.99-.29,1.52-.02.54-.03,1.01-.03,1.42v8.32h18.6v-8.32c0-.41-.01-.88-.03-1.42-.02-.54-.12-1.04-.29-1.52-.17-.48-.43-.88-.77-1.2s-.85-.48-1.51-.48v-.41h8.63v.41c-.64,0-1.14.16-1.49.48-.35.32-.62.72-.79,1.2-.17.48-.27.99-.29,1.52-.02.54-.03,1.01-.03,1.42v24.18c0,.41.01.88.03,1.42s.12,1.04.29,1.52c.17.48.43.88.79,1.2.35.32.85.48,1.49.48v.41h-8.63v-.41c.66,0,1.16-.16,1.51-.48s.6-.72.77-1.2c.17-.48.27-.99.29-1.52.02-.54.03-1.01.03-1.42v-15.17h-18.6v15.17c0,.41.01.88.03,1.42.02.54.12,1.04.29,1.52.17.48.43.88.79,1.2.35.32.85.48,1.49.48v.41h-8.63v-.41c.66,0,1.16-.16,1.51-.48.34-.32.6-.72.77-1.2.17-.48.27-.99.29-1.52.02-.54.03-1.01.03-1.42V10.99c0-.41-.01-.88-.03-1.42-.02-.54-.12-1.04-.29-1.52-.17-.48-.43-.88-.77-1.2-.34-.32-.84-.48-1.51-.48v-.41Z"/>
      <path class="cls-1" d="M294.89,39.8c.66,0,1.16-.16,1.51-.48.34-.32.6-.72.77-1.2.17-.48.27-.99.29-1.52.02-.54.03-1.01.03-1.42V10.99c0-.41-.01-.88-.03-1.42-.02-.54-.12-1.04-.29-1.52-.17-.48-.43-.88-.77-1.2-.34-.32-.84-.48-1.51-.48v-.41h26.71v5.38h-.41c-.53-1.14-1.24-2.03-2.14-2.65-.9-.63-1.88-1.09-2.95-1.39-1.06-.3-2.16-.48-3.29-.55-1.13-.07-2.19-.1-3.17-.1h-8.73v12.67h16.23l-1.34,3.77h-.41c-.27-.87-.72-1.51-1.34-1.94-.62-.42-1.4-.72-2.35-.89-.95-.17-2.07-.26-3.37-.26h-7.43v19.52h9.01c1.76,0,3.34-.24,4.76-.72,1.42-.48,2.65-1.08,3.72-1.8s1.94-1.5,2.64-2.35c.7-.84,1.22-1.64,1.56-2.4h.41l-2.81,7.95h-25.31v-.41Z"/>
      <path class="cls-1" d="M325.41,31.61c.62,1.12,1.38,2.19,2.3,3.22.91,1.03,1.94,1.94,3.07,2.74,1.13.8,2.34,1.44,3.63,1.92,1.29.48,2.61.72,3.96.72,1.58,0,2.94-.26,4.09-.77,1.15-.51,2.09-1.19,2.83-2.02.73-.83,1.27-1.79,1.63-2.86.35-1.07.53-2.16.53-3.25,0-1.42-.33-2.56-.99-3.42-.66-.87-1.54-1.58-2.62-2.12-1.08-.55-2.32-.99-3.7-1.34-1.38-.34-2.79-.67-4.23-.98-1.44-.31-2.85-.67-4.23-1.08-1.38-.41-2.62-.97-3.7-1.68-1.08-.71-1.96-1.62-2.62-2.72-.66-1.11-.99-2.52-.99-4.23,0-1.26.27-2.41.82-3.48.55-1.06,1.36-1.97,2.45-2.74,1.08-.76,2.44-1.36,4.06-1.78,1.62-.42,3.52-.63,5.69-.63,1.37,0,2.56.04,3.58.12,1.02.08,1.87.18,2.55.29.82.14,1.53.29,2.12.44l1.85,7.19h-.41c-.46-1.16-1.07-2.19-1.83-3.08-.77-.89-1.63-1.63-2.59-2.21s-1.99-1.02-3.08-1.32c-1.1-.3-2.2-.44-3.32-.44-1.76,0-3.25.16-4.47.48-1.22.32-2.21.77-2.98,1.34-.77.57-1.32,1.26-1.66,2.06s-.51,1.67-.51,2.6c0,1.44.33,2.59.99,3.46.66.87,1.54,1.57,2.62,2.11,1.08.54,2.32.96,3.7,1.27,1.38.31,2.8.62,4.25.92,1.45.31,2.87.67,4.25,1.1,1.38.42,2.61,1.02,3.7,1.78,1.08.77,1.96,1.75,2.62,2.96.66,1.21.99,2.75.99,4.62,0,1.21-.26,2.43-.77,3.65-.51,1.22-1.27,2.32-2.26,3.31-.99.98-2.23,1.78-3.7,2.4-1.47.62-3.17.92-5.09.92-1.48,0-2.85-.11-4.11-.33-1.26-.22-2.41-.53-3.46-.94-1.05-.41-2.02-.9-2.89-1.47-.88-.57-1.7-1.21-2.45-1.92v-4.8h.41Z"/>
      <path class="cls-1" d="M28.48,88.73c.32,0,.66-.09,1.03-.26.36-.17.72-.43,1.06-.77s.66-.77.96-1.28c.3-.51.52-1.12.68-1.83.52-2.26,1.01-4.46,1.46-6.59.45-2.13.88-4.26,1.32-6.39.43-2.12.88-4.28,1.34-6.47.46-2.19.95-4.46,1.47-6.82l-.55-1.27c-.21-.48-.43-.84-.67-1.08-.24-.24-.49-.41-.74-.51s-.52-.15-.8-.15h-.87v-.41h5.07c.48,0,.84.12,1.08.36.24.24.42.51.53.81,1.42,3.84,2.79,7.56,4.13,11.18,1.34,3.62,2.77,7.28,4.3,10.98,1.53-3.7,2.97-7.36,4.32-10.98,1.35-3.62,2.72-7.35,4.11-11.18.11-.3.29-.57.53-.81.24-.24.6-.36,1.08-.36h5.45v.41c-.3,0-.63.01-.99.03s-.7.1-.99.22c-.3.13-.53.31-.7.55s-.22.58-.15,1.01c.48,2.67.93,5.16,1.35,7.47.42,2.31.85,4.55,1.28,6.73.43,2.18.88,4.34,1.34,6.49.46,2.15.96,4.41,1.51,6.78.16.71.39,1.32.68,1.83.3.51.62.94.96,1.28s.7.6,1.06.77c.36.17.71.26,1.03.26v.41h-10.48v-.41c.3,0,.6-.06.91-.17.31-.11.59-.29.84-.53.25-.24.46-.54.62-.89.16-.35.24-.78.24-1.28,0-.43-.07-1.18-.21-2.23s-.32-2.32-.55-3.8c-.23-1.48-.5-3.15-.82-5-.32-1.85-.67-3.78-1.04-5.79-.38-2.01-.77-4.07-1.18-6.18-.41-2.11-.82-4.17-1.23-6.18-1.39,3.86-2.77,7.63-4.14,11.3-1.37,3.68-2.84,7.4-4.42,11.17.05.09.11.25.21.48.3.73.6,1.25.91,1.54.31.3.72.45,1.25.45h.72v.48c-.59.07-1.1.23-1.52.5-.42.26-.79.55-1.11.86-.32.31-.61.58-.87.82-.26.24-.53.36-.8.36-.25,0-.44-.08-.57-.24-.13-.16-.25-.37-.36-.62-.25-.66-.65-1.75-1.18-3.25-.54-1.51-1.2-3.3-2-5.38l-5.93-15.48c-.34,1.51-.71,3.15-1.1,4.91-.39,1.77-.77,3.56-1.13,5.38-.37,1.81-.71,3.59-1.03,5.33-.32,1.74-.6,3.33-.84,4.78-.24,1.45-.43,2.69-.58,3.73-.15,1.04-.22,1.76-.22,2.18,0,.5.08.92.24,1.27.16.34.36.63.62.86.25.23.53.39.84.5s.61.15.91.15v.41h-7.6v-.41Z"/>
      <path class="cls-1" d="M71.77,89.14v-.41c.34-.07.71-.17,1.1-.31.39-.14.79-.37,1.22-.69.42-.32.85-.76,1.28-1.34.43-.57.86-1.32,1.27-2.26.27-.62.54-1.26.81-1.94.26-.67.56-1.47.89-2.4.33-.92.72-2.01,1.18-3.27.46-1.26,1.02-2.76,1.68-4.52.46-1.21.92-2.44,1.4-3.68s.95-2.46,1.4-3.65c.46-1.19.9-2.32,1.32-3.39.42-1.07.8-2.04,1.15-2.91-.3-.41-.65-.68-1.06-.8-.41-.13-1.02-.19-1.81-.19h-1.27v-.48h.55c.39,0,.8-.15,1.25-.44.45-.3.89-.63,1.34-.99s.86-.7,1.23-.99c.38-.3.68-.44.91-.44.25,0,.44.08.57.24.13.16.24.37.36.62.21.55.55,1.42,1.03,2.62.48,1.2,1.03,2.58,1.64,4.14.62,1.56,1.27,3.25,1.97,5.05.7,1.8,1.36,3.57,2,5.31.66,1.76,1.22,3.27,1.68,4.52.46,1.26.85,2.35,1.18,3.27s.63,1.72.89,2.4c.26.67.53,1.32.8,1.94.41.94.83,1.69,1.27,2.26.43.57.86,1.02,1.28,1.34.42.32.83.55,1.22.69.39.14.75.24,1.1.31v.41h-10.89v-.41c.3,0,.61-.04.94-.14.33-.09.64-.24.92-.44.29-.21.52-.48.7-.84.18-.35.27-.8.27-1.35,0-.48-.18-1.31-.53-2.5-.35-1.19-.8-2.59-1.35-4.21h-15.04c-.53,1.62-.95,3.01-1.28,4.18-.33,1.16-.5,1.98-.5,2.43,0,.64.09,1.15.27,1.52.18.38.42.67.7.87.29.21.59.34.92.39.33.06.64.09.94.09v.41h-8.91ZM94.41,78.55c-.41-1.16-.86-2.38-1.34-3.65l-1.44-3.8c-.48-1.27-.97-2.51-1.46-3.73-.49-1.22-.94-2.36-1.35-3.41-.41-1.05-.79-2-1.13-2.84-.34-.84-.62-1.52-.82-2.02v.03c-.43,1.14-.95,2.5-1.54,4.08-.59,1.58-1.21,3.24-1.85,4.98-.64,1.75-1.28,3.52-1.92,5.31-.64,1.79-1.22,3.48-1.75,5.05h14.59Z"/>
      <path class="cls-1" d="M101.81,72.01c0-2.49.43-4.82,1.28-7,.86-2.18,2.05-4.09,3.58-5.72,1.53-1.63,3.37-2.92,5.51-3.85,2.15-.94,4.5-1.4,7.06-1.4,1.37,0,2.56.04,3.58.12,1.02.08,1.87.18,2.55.29.82.14,1.53.29,2.12.44l1.85,7.19h-.41c-.53-1.23-1.18-2.29-1.95-3.17-.78-.88-1.64-1.61-2.59-2.19-.95-.58-1.95-1.01-3.01-1.28-1.06-.27-2.15-.41-3.27-.41-1.62,0-3.08.22-4.38.65s-2.45,1.02-3.46,1.76c-1.01.74-1.86,1.6-2.57,2.57-.71.97-1.28,1.99-1.73,3.07-.45,1.07-.78,2.16-.99,3.27-.22,1.11-.33,2.17-.33,3.2,0,2.53.42,4.98,1.27,7.35.84,2.36,2.01,4.45,3.51,6.27,1.5,1.82,3.28,3.27,5.34,4.35,2.07,1.08,4.33,1.63,6.8,1.63,1.42,0,2.69-.29,3.82-.87s2.13-1.39,3-2.41v-7.09c0-.41-.01-.88-.03-1.42-.02-.54-.12-1.04-.29-1.52-.17-.48-.43-.88-.77-1.2-.34-.32-.84-.48-1.51-.48v-.41h8.63v.41c-.64,0-1.14.16-1.49.48-.35.32-.62.72-.79,1.2-.17.48-.27.99-.29,1.52-.02.54-.03,1.01-.03,1.42v6.44c-.53.89-1.34,1.69-2.43,2.4-.46.3-1.01.59-1.64.87-.64.29-1.37.54-2.19.77s-1.76.41-2.81.55c-1.05.14-2.21.21-3.49.21-2.56,0-4.91-.47-7.06-1.42-2.15-.95-3.98-2.23-5.51-3.85-1.53-1.62-2.72-3.52-3.58-5.7-.86-2.18-1.28-4.52-1.28-7Z"/>
      <path class="cls-1" d="M136.09,88.73c.66,0,1.16-.16,1.51-.48.34-.32.6-.72.77-1.2.17-.48.27-.99.29-1.52.02-.54.03-1.01.03-1.42v-24.18c0-.41-.01-.88-.03-1.42-.02-.54-.12-1.04-.29-1.52-.17-.48-.43-.88-.77-1.2-.34-.32-.84-.48-1.51-.48v-.41h26.71v5.38h-.41c-.53-1.14-1.24-2.03-2.14-2.65-.9-.63-1.88-1.09-2.95-1.39-1.06-.3-2.16-.48-3.29-.55-1.13-.07-2.19-.1-3.17-.1h-8.73v12.67h16.23l-1.34,3.77h-.41c-.27-.87-.72-1.51-1.34-1.94-.62-.42-1.4-.72-2.35-.89-.95-.17-2.07-.26-3.37-.26h-7.43v19.52h9.01c1.76,0,3.34-.24,4.76-.72,1.42-.48,2.65-1.08,3.72-1.8s1.94-1.5,2.64-2.35c.7-.84,1.22-1.64,1.56-2.4h.41l-2.81,7.95h-25.31v-.41Z"/>
      <path class="cls-1" d="M169.49,57.63v24.83c0,2.03.43,3.56,1.3,4.59.87,1.03,2.28,1.59,4.25,1.68v.41h-10.17v-.41c.66,0,1.23-.16,1.7-.48.47-.32.86-.72,1.16-1.2.31-.48.54-.99.68-1.52.15-.54.22-1.01.22-1.42v-27.64c-.5-.55-1.01-.88-1.52-.99-.51-.11-1.14-.17-1.87-.17v-.41h5.55c.32,0,.62.08.91.24.29.16.52.37.7.62l17.09,27.02c.32.53.67,1.01,1.04,1.44.38.43.75.84,1.11,1.23v-21.99c0-.27-.02-.67-.05-1.18-.03-.51-.11-1.07-.24-1.68-.13-.61-.32-1.22-.58-1.85-.26-.63-.63-1.2-1.11-1.71-.48-.51-1.08-.93-1.8-1.25s-1.59-.48-2.62-.48v-.41h9.86v.41c-.64,0-1.14.16-1.49.48-.35.32-.62.72-.79,1.2-.17.48-.27.99-.29,1.52-.02.54-.03,1.01-.03,1.42v26.27c.34.25.68.44,1.03.58.34.14.7.21,1.06.21.14,0,.27-.01.41-.03.14-.02.29-.06.45-.1l.24.27-4.08,2.6c-.25.18-.5.27-.75.27-.32,0-.57-.13-.75-.38l-.96-1.27-17.67-27.84-1.99-2.88Z"/>
      <path class="cls-1" d="M212.67,54.89c2.08,0,3.84.34,5.29,1.01,1.45.67,2.59,1.53,3.41,2.57.82,1.04,1.32,2.19,1.49,3.44.17,1.26.02,2.47-.46,3.65-.48,1.18-1.3,2.23-2.45,3.17-1.15.94-2.64,1.61-4.47,2.02,1.51.14,2.83.46,3.96.98,1.13.51,2.08,1.16,2.84,1.95.76.79,1.34,1.7,1.71,2.72.38,1.03.57,2.14.57,3.32,0,1.26-.24,2.45-.72,3.6-.48,1.14-1.2,2.15-2.18,3.01-.97.87-2.19,1.55-3.65,2.05-1.46.5-3.16.75-5.1.75h-15.21v-.41c.66,0,1.16-.16,1.51-.48s.6-.72.77-1.2c.17-.48.27-.99.29-1.52s.03-1.01.03-1.42v-24.18c0-.41-.01-.88-.03-1.42-.02-.54-.12-1.04-.29-1.52-.17-.48-.43-.88-.77-1.2s-.85-.48-1.51-.48v-.41h14.97ZM209.76,70.54c2.06,0,3.79-.37,5.21-1.11,1.42-.74,2.5-1.67,3.25-2.77.75-1.11,1.18-2.31,1.27-3.6.09-1.29-.15-2.49-.74-3.6-.58-1.11-1.51-2.03-2.77-2.77s-2.88-1.11-4.85-1.11h-7.4v14.97h6.03ZM210.86,88.45c1.6,0,3.03-.24,4.28-.72,1.26-.48,2.32-1.12,3.19-1.92.87-.8,1.53-1.71,1.99-2.74.46-1.03.68-2.09.68-3.19,0-1.28-.22-2.45-.67-3.51-.45-1.06-1.1-1.97-1.95-2.74-.86-.76-1.91-1.36-3.17-1.78-1.26-.42-2.69-.63-4.32-.63h-7.16v17.23h7.12Z"/>
      <path class="cls-1" d="M222.81,89.14v-.41c.34-.07.71-.17,1.1-.31.39-.14.79-.37,1.22-.69.42-.32.85-.76,1.28-1.34.43-.57.86-1.32,1.27-2.26.27-.62.54-1.26.8-1.94.26-.67.56-1.47.89-2.4s.72-2.01,1.18-3.27c.46-1.26,1.02-2.76,1.68-4.52.46-1.21.92-2.44,1.4-3.68.48-1.24.95-2.46,1.4-3.65.46-1.19.9-2.32,1.32-3.39.42-1.07.8-2.04,1.15-2.91-.3-.41-.65-.68-1.06-.8s-1.02-.19-1.82-.19h-1.27v-.48h.55c.39,0,.81-.15,1.25-.44.45-.3.89-.63,1.34-.99.45-.37.86-.7,1.23-.99.38-.3.68-.44.91-.44.25,0,.44.08.56.24.13.16.25.37.36.62.21.55.55,1.42,1.03,2.62.48,1.2,1.03,2.58,1.64,4.14.62,1.56,1.27,3.25,1.97,5.05.7,1.8,1.36,3.57,2,5.31.66,1.76,1.22,3.27,1.68,4.52.46,1.26.85,2.35,1.18,3.27.33.92.63,1.72.89,2.4.26.67.53,1.32.8,1.94.41.94.83,1.69,1.27,2.26.43.57.86,1.02,1.28,1.34.42.32.83.55,1.22.69.39.14.75.24,1.1.31v.41h-10.89v-.41c.3,0,.61-.04.94-.14.33-.09.64-.24.92-.44.29-.21.52-.48.7-.84.18-.35.27-.8.27-1.35,0-.48-.18-1.31-.53-2.5-.35-1.19-.81-2.59-1.35-4.21h-15.04c-.53,1.62-.95,3.01-1.28,4.18-.33,1.16-.5,1.98-.5,2.43,0,.64.09,1.15.27,1.52.18.38.42.67.7.87.28.21.59.34.92.39.33.06.64.09.94.09v.41h-8.91ZM245.45,78.55c-.41-1.16-.86-2.38-1.34-3.65-.48-1.27-.96-2.53-1.44-3.8-.48-1.27-.96-2.51-1.46-3.73-.49-1.22-.94-2.36-1.35-3.41-.41-1.05-.79-2-1.13-2.84-.34-.84-.62-1.52-.82-2.02v.03c-.43,1.14-.95,2.5-1.54,4.08-.59,1.58-1.21,3.24-1.85,4.98-.64,1.75-1.28,3.52-1.92,5.31s-1.22,3.48-1.75,5.05h14.59Z"/>
      <path class="cls-1" d="M260.9,57.63v24.83c0,2.03.43,3.56,1.3,4.59.87,1.03,2.28,1.59,4.25,1.68v.41h-10.17v-.41c.66,0,1.23-.16,1.7-.48.47-.32.86-.72,1.16-1.2.31-.48.54-.99.69-1.52.15-.54.22-1.01.22-1.42v-27.64c-.5-.55-1.01-.88-1.52-.99-.51-.11-1.14-.17-1.87-.17v-.41h5.55c.32,0,.62.08.91.24.29.16.52.37.7.62l17.09,27.02c.32.53.67,1.01,1.04,1.44s.75.84,1.11,1.23v-21.99c0-.27-.02-.67-.05-1.18s-.11-1.07-.24-1.68-.32-1.22-.58-1.85c-.26-.63-.63-1.2-1.11-1.71-.48-.51-1.08-.93-1.8-1.25s-1.59-.48-2.62-.48v-.41h9.86v.41c-.64,0-1.14.16-1.49.48s-.62.72-.79,1.2c-.17.48-.27.99-.29,1.52-.02.54-.03,1.01-.03,1.42v26.27c.34.25.68.44,1.03.58.34.14.7.21,1.06.21.14,0,.27-.01.41-.03s.29-.06.45-.1l.24.27-4.08,2.6c-.25.18-.5.27-.75.27-.32,0-.57-.13-.75-.38l-.96-1.27-17.67-27.84-1.99-2.88Z"/>
      <path class="cls-1" d="M319.54,72.01c0,2.31-.35,4.49-1.04,6.56-.7,2.07-1.72,3.88-3.08,5.45-1.36,1.56-3.04,2.81-5.05,3.73-2.01.92-4.34,1.39-6.99,1.39h-14.25v-.41c.66,0,1.16-.16,1.51-.48.34-.32.6-.72.77-1.2.17-.48.27-.99.29-1.52.02-.54.03-1.01.03-1.42v-24.18c0-.41-.01-.88-.03-1.42-.02-.54-.12-1.04-.29-1.52-.17-.48-.43-.88-.77-1.2-.34-.32-.84-.48-1.51-.48v-.41h14.25c2.65,0,4.98.46,6.99,1.39,2.01.92,3.69,2.17,5.05,3.73,1.36,1.56,2.39,3.38,3.08,5.45.7,2.07,1.04,4.25,1.04,6.56ZM302.55,88.45c2.1,0,3.98-.47,5.65-1.4,1.67-.94,3.07-2.17,4.21-3.72,1.14-1.54,2.01-3.29,2.62-5.26.6-1.96.91-3.98.91-6.06s-.31-4.1-.94-6.08c-.63-1.97-1.52-3.73-2.67-5.26-1.15-1.53-2.56-2.76-4.21-3.7s-3.51-1.4-5.57-1.4h-7.4v32.88h7.4Z"/>
    </g>
  </g>
</svg>